<?xml version="1.0" standalone="no"?>
<!DOCTYPE svg PUBLIC "-//W3C//DTD SVG 20010904//EN"
 "http://www.w3.org/TR/2001/REC-SVG-20010904/DTD/svg10.dtd">
<svg version="1.0" xmlns="http://www.w3.org/2000/svg"
 width="1000.000000pt" height="1000.000000pt" viewBox="0 0 1000.000000 1000.000000"
 preserveAspectRatio="xMidYMid meet">

<g transform="translate(0.000000,1000.000000) scale(0.100000,-0.100000)"
fill="#000000" stroke="none">
<path d="M4795 8499 c-1256 -67 -2391 -820 -2945 -1954 -258 -527 -374 -1062
-357 -1640 21 -698 239 -1357 635 -1917 l55 -77 44 30 c129 89 219 76 378 -57
84 -70 171 -118 236 -129 45 -8 134 15 194 51 23 13 70 48 105 79 81 70 169
115 225 115 56 0 144 -45 225 -115 35 -31 82 -66 105 -79 51 -31 150 -59 181
-53 13 2 24 1 24 -2 0 -11 -34 -226 -36 -230 -4 -5 -64 39 -124 92 -30 26 -84
62 -120 80 -128 63 -247 36 -394 -92 -178 -153 -284 -153 -462 0 -79 69 -174
119 -238 126 -28 4 -65 -1 -103 -13 l-58 -19 90 -6 c116 -7 142 -21 295 -152
64 -55 116 -84 186 -102 54 -14 66 -14 119 0 74 20 121 47 205 119 36 31 93
70 127 87 108 54 179 34 339 -93 50 -40 99 -78 109 -83 17 -10 17 -16 0 -128
-10 -64 -20 -117 -22 -117 -3 0 -25 18 -50 40 -69 60 -145 94 -225 98 -59 4
-75 0 -130 -26 -35 -16 -99 -60 -143 -96 -90 -75 -164 -116 -209 -116 -28 -1
-29 -2 -12 -12 32 -18 126 -14 166 6 19 11 63 45 97 76 159 149 278 149 448 0
146 -126 274 -157 396 -96 31 16 91 57 134 92 187 157 280 155 470 -6 101 -86
163 -114 250 -115 59 0 80 5 135 32 36 18 94 57 130 87 181 155 283 156 455 6
145 -126 274 -158 395 -98 31 15 91 57 135 94 186 154 282 156 455 7 139 -118
248 -132 346 -41 41 37 124 181 113 193 -3 2 -22 -27 -43 -66 -21 -39 -39 -69
-41 -67 -2 2 -5 58 -6 125 l-3 123 44 29 c25 16 71 51 102 78 107 91 204 122
282 89 47 -20 53 -16 30 19 -66 101 -204 64 -408 -109 -26 -21 -48 -37 -50
-35 -2 2 -8 76 -14 164 -11 184 -17 169 87 240 146 98 233 84 411 -69 61 -53
126 -90 140 -81 5 3 48 58 96 121 387 515 628 1146 685 1793 15 173 6 605 -16
761 -107 764 -434 1438 -962 1981 -713 732 -1686 1113 -2708 1058z m-207 -635
c-3 -16 -7 -13 -21 13 -23 43 -21 52 4 26 12 -11 19 -29 17 -39z m863 -142
c-13 -24 -51 -58 -51 -45 0 6 9 22 21 37 23 30 45 36 30 8z m-661 -169 c25
-13 74 -49 108 -80 l63 -56 47 26 c61 33 163 67 202 67 44 0 80 -39 80 -85 0
-89 -105 -317 -254 -553 l-78 -122 -28 20 c-115 82 -275 329 -311 480 -20 85
-17 228 7 275 33 69 75 76 164 28z m-505 -133 c4 -6 -5 -10 -19 -10 -14 0 -26
5 -26 10 0 6 9 10 19 10 11 0 23 -4 26 -10z m1305 -260 c19 -12 -66 -12 -95 0
-15 6 -7 9 30 9 28 0 57 -4 65 -9z m-1190 -175 c0 -10 -62 -36 -78 -32 -12 3
-7 9 18 20 35 16 60 21 60 12z m1036 -186 c19 -22 19 -22 -6 -14 -14 4 -32 13
-40 21 -12 12 -12 14 6 14 12 0 29 -10 40 -21z m355 -505 c23 -11 29 -20 23
-32 -25 -59 -43 -122 -44 -154 0 -21 -3 -38 -7 -38 -5 0 -42 11 -83 24 l-75
23 2 38 c4 52 39 122 71 140 35 19 76 19 113 -1z m195 -23 c125 -76 211 -404
135 -514 l-22 -32 25 27 25 28 78 -104 c469 -624 746 -1710 813 -3186 15 -329
16 -317 -22 -340 -18 -11 -45 -20 -60 -20 -27 0 -28 2 -28 49 0 28 -5 53 -11
57 -9 5 -10 -9 -7 -50 3 -31 2 -56 -1 -56 -17 0 -113 64 -162 107 -189 166
-325 166 -524 -1 -185 -155 -272 -155 -460 -1 -208 171 -328 170 -530 -4 -81
-69 -165 -111 -225 -111 -60 0 -147 43 -225 111 -109 95 -182 130 -274 130
-70 0 -171 -48 -261 -127 -82 -71 -169 -114 -231 -114 -66 0 -169 52 -169 86
0 56 95 622 197 1174 38 209 66 386 67 431 1 67 -2 80 -27 115 -52 76 -136
104 -367 124 -244 21 -359 55 -446 132 -34 30 -52 37 -136 51 -167 29 -275 83
-304 152 -18 43 -67 286 -94 470 -27 177 -38 490 -20 592 6 40 22 87 34 105
96 144 600 352 1156 478 375 85 696 123 1045 123 324 1 546 -29 755 -101 l55
-19 5 -49 c4 -42 7 -32 17 68 13 126 33 181 79 217 33 26 79 27 120 2z m-3316
-1411 c-8 -5 -19 -10 -25 -10 -5 0 -3 5 5 10 8 5 20 10 25 10 6 0 3 -5 -5 -10z"/>
<path d="M5872 6208 c-7 -7 -12 -17 -12 -22 0 -6 5 -3 11 7 39 66 109 -88 109
-240 0 -72 -18 -103 -63 -104 -18 -1 -24 -3 -14 -6 91 -24 124 109 67 271 -34
99 -64 128 -98 94z"/>
<path d="M5781 5914 c0 -11 3 -14 6 -6 3 7 2 16 -1 19 -3 4 -6 -2 -5 -13z"/>
<path d="M6230 5617 c0 -11 29 -67 35 -67 3 0 5 6 5 14 0 14 -39 67 -40 53z"/>
<path d="M6030 5590 c0 -5 5 -10 11 -10 5 0 7 5 4 10 -3 6 -8 10 -11 10 -2 0
-4 -4 -4 -10z"/>
<path d="M4745 5504 c77 -66 211 -103 308 -85 65 12 157 54 186 85 17 18 7 15
-52 -14 -70 -34 -75 -35 -192 -35 -118 0 -121 1 -200 37 -72 34 -77 35 -50 12z"/>
<path d="M6190 5476 c0 -14 39 -67 40 -53 0 11 -29 67 -35 67 -3 0 -5 -6 -5
-14z"/>
<path d="M6346 5355 c47 -89 58 -101 39 -44 -9 25 -29 61 -46 80 -30 34 -30
34 7 -36z"/>
<path d="M2830 5373 c0 -3 11 -25 24 -47 13 -23 32 -65 41 -94 22 -67 40 -55
40 24 0 51 -3 58 -37 90 -34 31 -68 45 -68 27z"/>
<path d="M6310 5252 c0 -5 10 -17 21 -28 22 -19 22 -19 10 3 -12 24 -31 39
-31 25z"/>
<path d="M6470 5139 c7 -11 14 -19 16 -16 7 7 -7 37 -17 37 -6 0 -5 -9 1 -21z"/>
<path d="M6280 5147 c0 -15 24 -67 30 -67 11 0 -8 58 -21 66 -5 3 -9 3 -9 1z"/>
<path d="M6425 5025 c7 -33 34 -80 41 -72 3 3 -6 27 -21 54 -21 39 -25 42 -20
18z"/>
<path d="M3221 4941 c-9 -6 1 -10 33 -12 48 -4 62 4 24 15 -31 8 -40 7 -57 -3z"/>
<path d="M6291 4904 c0 -11 3 -14 6 -6 3 7 2 16 -1 19 -3 4 -6 -2 -5 -13z"/>
<path d="M6584 4845 c6 -41 27 -92 33 -79 2 6 -6 33 -17 60 -15 36 -20 41 -16
19z"/>
<path d="M6440 4799 c0 -14 7 -34 15 -45 13 -17 13 -15 4 21 -14 49 -19 56
-19 24z"/>
<path d="M3246 4731 c5 -5 20 -12 34 -15 24 -7 24 -6 6 8 -21 17 -57 23 -40 7z"/>
<path d="M6580 4629 c0 -9 7 -22 15 -29 19 -16 19 0 0 26 -12 16 -14 16 -15 3z"/>
<path d="M3199 4590 c13 -11 28 -20 35 -20 6 1 0 10 -13 20 -13 11 -28 20 -35
20 -6 -1 0 -10 13 -20z"/>
<path d="M6491 4540 c0 -14 6 -36 15 -50 15 -25 15 -25 8 10 -9 48 -23 73 -23
40z"/>
<path d="M6680 4493 c0 -12 5 -25 10 -28 13 -8 13 15 0 35 -8 12 -10 11 -10
-7z"/>
<path d="M6610 4317 c0 -17 34 -109 37 -100 6 16 -15 91 -27 98 -6 3 -10 4
-10 2z"/>
<path d="M6741 4288 c-1 -15 4 -30 9 -33 12 -7 12 12 0 40 -8 18 -9 17 -9 -7z"/>
<path d="M6540 4248 c0 -15 5 -30 10 -33 13 -8 13 25 0 45 -8 12 -10 9 -10
-12z"/>
<path d="M6650 4080 c0 -5 5 -10 11 -10 5 0 7 5 4 10 -3 6 -8 10 -11 10 -2 0
-4 -4 -4 -10z"/>
<path d="M6771 4052 c11 -51 28 -96 34 -90 7 7 -21 108 -33 120 -7 7 -8 -2 -1
-30z"/>
<path d="M6646 3885 c3 -22 12 -53 20 -70 l14 -30 -6 40 c-3 22 -12 53 -20 70
l-14 30 6 -40z"/>
<path d="M6792 3790 c0 -19 8 -57 18 -85 24 -65 25 -38 1 50 -15 56 -19 63
-19 35z"/>
<path d="M6570 3676 c0 -9 5 -16 10 -16 6 0 10 4 10 9 0 6 -4 13 -10 16 -5 3
-10 -1 -10 -9z"/>
<path d="M6722 3565 c0 -16 2 -22 5 -12 2 9 2 23 0 30 -3 6 -5 -1 -5 -18z"/>
<path d="M6851 3475 c0 -16 4 -39 9 -50 7 -16 9 -14 9 15 0 19 -4 42 -9 50 -7
11 -10 8 -9 -15z"/>
<path d="M6621 3365 c0 -27 4 -57 9 -65 12 -18 12 39 0 85 -7 26 -8 24 -9 -20z"/>
<path d="M6769 3320 c-3 -8 -3 -28 1 -45 3 -19 8 -24 11 -15 3 8 3 29 -1 45
-3 19 -8 24 -11 15z"/>
<path d="M6731 3070 c1 -19 5 -48 9 -65 7 -26 8 -24 9 20 0 28 -4 57 -9 65 -7
11 -9 6 -9 -20z"/>
<path d="M6897 3093 c-11 -10 -8 -93 3 -93 6 0 10 23 10 50 0 51 -1 55 -13 43z"/>
<path d="M6904 2849 c-3 -6 -1 -16 5 -22 8 -8 11 -5 11 11 0 24 -5 28 -16 11z"/>
<path d="M6781 2740 c0 -41 4 -82 9 -90 12 -19 12 102 0 140 -6 18 -8 3 -9
-50z"/>
<path d="M6687 2533 c-10 -9 -7 -74 3 -98 6 -14 9 -2 9 43 1 62 0 68 -12 55z"/>
<path d="M6940 2400 c0 -5 5 -10 10 -10 6 0 10 5 10 10 0 6 -4 10 -10 10 -5 0
-10 -4 -10 -10z"/>
<path d="M6812 2305 l1 -90 10 58 c6 39 6 69 -1 90 -8 27 -10 17 -10 -58z"/>
<path d="M3474 1992 c-36 -18 -90 -69 -81 -79 2 -2 24 6 48 17 96 43 193 13
324 -100 93 -81 161 -114 248 -118 62 -4 75 -1 140 31 40 20 101 62 137 93 36
32 92 70 125 86 112 53 184 34 330 -88 44 -37 108 -81 143 -97 54 -25 72 -29
130 -25 86 4 150 35 257 123 187 153 277 152 460 -4 106 -91 162 -116 260
-116 98 0 157 26 261 117 125 110 228 141 322 98 48 -22 53 -14 17 29 -72 85
-209 59 -360 -69 -98 -83 -175 -123 -239 -123 -65 0 -148 41 -234 116 -127
110 -237 147 -340 113 -53 -18 -138 -73 -211 -137 -24 -21 -68 -51 -97 -65
-108 -53 -197 -28 -339 92 -107 91 -169 119 -260 119 -89 0 -149 -28 -260
-121 -187 -155 -282 -156 -460 -3 -129 110 -240 148 -321 111z"/>
</g>
</svg>
