<?xml version="1.0" standalone="no"?>
<!DOCTYPE svg PUBLIC "-//W3C//DTD SVG 20010904//EN"
 "http://www.w3.org/TR/2001/REC-SVG-20010904/DTD/svg10.dtd">
<svg version="1.0" xmlns="http://www.w3.org/2000/svg"
 width="600.000000pt" height="600.000000pt" viewBox="0 0 600.000000 600.000000"
 preserveAspectRatio="xMidYMid meet">

<g transform="translate(0.000000,600.000000) scale(0.100000,-0.100000)"
fill="#000000" stroke="none">
<path d="M4291 4103 c-7 -3 -24 -28 -36 -56 -23 -49 -27 -51 -102 -79 -164
-60 -371 -127 -443 -144 -134 -30 -290 -8 -610 87 -323 96 -586 134 -870 126
-196 -5 -304 -22 -442 -68 -377 -126 -724 -453 -802 -756 -41 -158 0 -368 121
-623 l55 -115 5 -120 5 -120 -41 -78 c-47 -89 -53 -153 -23 -222 l18 -39 28
74 c15 41 40 89 56 105 15 17 39 50 52 75 21 42 23 56 22 200 l0 155 -51 101
c-29 55 -67 145 -86 200 -71 204 -75 330 -14 458 105 221 293 404 542 526 189
93 361 130 610 130 263 0 484 -36 810 -133 194 -57 351 -89 465 -94 94 -4 117
-2 220 25 63 17 185 55 270 86 84 30 158 52 162 50 4 -3 8 -15 8 -28 0 -47 71
-76 101 -40 7 9 14 45 15 83 1 39 11 88 23 119 26 65 26 77 1 102 -20 20 -42
24 -69 13z"/>
<path d="M4525 4056 c-5 -2 -22 -7 -37 -10 -35 -8 -58 -32 -58 -60 0 -41 25
-51 129 -51 82 0 104 -4 151 -26 78 -37 342 -191 414 -243 94 -68 186 -162
186 -191 0 -28 -8 -30 -44 -14 -20 10 -30 9 -50 -4 -50 -33 -39 -91 23 -117
l30 -12 -28 -57 c-61 -119 -106 -136 -356 -133 -197 2 -233 -6 -323 -72 -31
-23 -89 -80 -127 -127 -145 -175 -366 -428 -472 -541 -101 -107 -253 -294
-253 -311 0 -4 19 -7 42 -7 23 0 49 -7 58 -15 15 -14 22 -8 79 65 35 45 110
131 168 193 102 107 322 360 465 533 123 149 165 169 328 160 132 -7 257 6
335 35 90 34 157 124 212 284 36 106 40 163 14 213 -41 81 -187 204 -365 310
-288 170 -334 191 -445 198 -36 2 -70 2 -76 0z"/>
<path d="M4725 3724 c-10 -10 -15 -29 -13 -48 3 -27 11 -35 58 -58 68 -34 72
-34 107 -4 24 21 26 27 18 52 -7 20 -25 36 -55 51 -54 27 -93 29 -115 7z"/>
<path d="M2146 2628 c-7 -13 -17 -54 -20 -91 -13 -139 -71 -261 -151 -322 -24
-18 -94 -49 -169 -74 -229 -78 -280 -149 -225 -314 19 -59 81 -175 121 -226
18 -23 18 -22 18 87 0 121 -9 153 -52 190 -26 22 -28 30 -28 96 0 106 1 106
189 106 166 0 188 5 247 62 l31 29 59 -15 c227 -58 508 -83 779 -68 110 6 208
14 217 17 13 5 20 0 27 -18 6 -14 20 -28 33 -32 13 -4 40 -21 61 -37 l39 -30
-9 58 c-18 129 -11 181 38 284 25 53 43 102 41 110 -8 27 -35 50 -58 50 -37 0
-94 -87 -129 -202 -21 -64 -11 -60 -181 -79 -131 -14 -413 -6 -564 16 -136 19
-263 45 -273 54 -4 4 1 29 12 54 25 57 51 181 51 240 0 30 -6 49 -18 60 -27
24 -69 21 -86 -5z"/>
<path d="M573 2010 c-158 -32 -256 -194 -239 -397 12 -150 84 -260 197 -299
96 -34 289 -18 347 28 8 7 12 38 12 89 l0 79 -44 0 c-47 0 -56 -11 -56 -72 0
-21 -6 -28 -32 -36 -104 -32 -171 -19 -232 42 -51 50 -71 111 -71 211 0 125
46 220 121 251 46 19 136 18 179 -3 29 -14 35 -22 35 -47 0 -65 8 -76 56 -76
l44 0 0 83 0 84 -47 25 c-80 43 -175 56 -270 38z"/>
<path d="M2918 2007 c-97 -28 -169 -98 -205 -200 -13 -38 -18 -82 -18 -162 0
-97 3 -116 26 -165 36 -77 80 -124 147 -157 51 -25 67 -28 157 -27 100 1 169
17 222 51 22 15 23 20 23 159 l0 144 -115 0 -115 0 0 -45 0 -45 55 0 55 0 0
-74 0 -74 -37 -13 c-52 -18 -141 -16 -179 4 -42 22 -89 77 -105 124 -8 21 -14
77 -14 128 0 76 5 99 27 146 43 93 124 136 223 118 72 -13 82 -23 90 -79 l7
-50 49 0 49 0 0 74 c0 70 -2 76 -27 94 -70 49 -227 73 -315 49z"/>
<path d="M1136 1696 c-101 -270 -121 -315 -139 -318 -17 -2 -23 -11 -25 -40
l-3 -38 111 0 111 0 -3 38 c-2 30 -7 38 -25 40 -13 2 -23 5 -23 7 0 2 10 28
21 59 l22 57 130 -3 130 -3 12 -35 c27 -79 27 -78 3 -82 -19 -2 -24 -10 -26
-40 l-3 -38 115 0 116 0 0 35 c0 31 -4 36 -28 41 -26 5 -33 21 -143 317 l-115
312 -60 3 -60 3 -118 -315z m270 -88 c5 -16 -4 -18 -95 -18 l-100 0 35 98 c19
53 42 117 51 141 l16 44 43 -124 c25 -68 47 -132 50 -141z"/>
<path d="M1712 1973 c3 -35 6 -39 41 -47 l37 -10 0 -263 c0 -202 -3 -265 -12
-267 -7 -3 -25 -7 -40 -10 -24 -6 -28 -11 -28 -41 l0 -35 141 0 140 0 -3 38
c-3 34 -6 37 -38 42 l-35 5 -3 93 -3 92 85 0 c202 0 292 61 304 207 5 63 -30
150 -74 179 -67 46 -82 48 -302 52 l-213 4 3 -39z m367 -59 c74 -15 118 -104
87 -177 -24 -57 -56 -72 -160 -72 l-91 0 -3 114 c-1 63 0 121 2 128 6 14 107
18 165 7z"/>
<path d="M2350 1970 c0 -39 1 -40 40 -46 l40 -7 0 -264 c0 -202 -3 -265 -12
-267 -7 -3 -25 -7 -40 -10 -24 -6 -28 -11 -28 -41 l0 -35 141 0 140 0 -3 38
c-3 34 -6 37 -38 42 l-35 5 -3 263 c-2 205 0 263 10 266 7 3 25 7 41 10 24 6
27 11 27 46 l0 40 -140 0 -140 0 0 -40z"/>
<path d="M3526 1696 c-101 -270 -121 -315 -139 -318 -17 -2 -23 -11 -25 -40
l-3 -38 111 0 111 0 -3 38 c-2 30 -7 38 -25 40 -13 2 -23 5 -23 7 0 2 10 28
21 59 l22 57 130 -3 130 -3 12 -35 c27 -79 27 -78 3 -82 -19 -2 -24 -10 -26
-40 l-3 -38 115 0 116 0 0 35 c0 31 -4 36 -28 41 -26 5 -33 21 -143 317 l-115
312 -60 3 -60 3 -118 -315z m270 -88 c5 -16 -4 -18 -95 -18 l-100 0 35 98 c19
53 42 117 51 141 l16 44 43 -124 c25 -68 47 -132 50 -141z"/>
<path d="M4110 1971 c0 -40 11 -51 51 -51 19 0 19 -9 17 -267 l-3 -268 -30 -5
c-26 -4 -30 -10 -33 -43 l-3 -37 136 0 136 0 -3 38 c-3 34 -6 37 -36 40 -18 2
-35 9 -37 15 -6 21 -15 461 -10 455 3 -3 55 -122 115 -264 l108 -259 48 0 47
0 108 265 108 265 -2 -235 -2 -235 -35 -5 c-32 -5 -35 -8 -38 -42 l-3 -38 141
0 141 0 -3 38 c-3 34 -6 37 -38 42 l-35 5 0 265 0 264 38 9 c35 8 37 11 37 48
l0 39 -129 0 -130 0 -19 -52 c-66 -173 -174 -444 -181 -451 -5 -5 -13 4 -18
20 -6 15 -52 130 -103 256 l-92 227 -124 0 -124 0 0 -39z"/>
<path d="M5090 1975 c0 -36 3 -38 53 -49 l27 -6 0 -265 0 -265 -27 -6 c-50
-11 -53 -13 -53 -49 l0 -35 280 0 280 0 0 90 0 90 -50 0 c-50 0 -50 0 -50 -32
0 -57 -5 -59 -136 -56 l-119 3 -3 113 -3 112 126 0 125 0 0 45 0 44 -122 3
-123 3 0 100 0 100 118 3 c116 3 117 2 117 -20 0 -57 10 -68 56 -68 l44 0 0
90 0 90 -270 0 -270 0 0 -35z"/>
<path d="M3331 1834 c-1 -60 -5 -85 -16 -94 -14 -12 -13 -15 5 -35 18 -19 20
-35 21 -141 l1 -119 19 40 c31 67 31 94 1 265 l-30 165 -1 -81z"/>
<path d="M1980 1475 c0 -18 5 -25 18 -25 10 0 28 -10 40 -23 18 -19 22 -35 22
-85 l0 -62 54 0 c61 0 86 16 86 56 0 32 -24 90 -56 131 -24 32 -28 33 -95 33
-67 0 -69 -1 -69 -25z"/>
<path d="M3650 1320 l0 -60 50 0 50 0 0 60 0 60 -50 0 -50 0 0 -60z"/>
</g>
</svg>
